<?xml version="1.0" standalone="no"?><!DOCTYPE svg PUBLIC "-//W3C//DTD SVG 1.1//EN" "http://www.w3.org/Graphics/SVG/1.1/DTD/svg11.dtd"><svg t="1575357073497" class="icon" viewBox="0 0 1024 1024" version="1.1" xmlns="http://www.w3.org/2000/svg" p-id="3385" xmlns:xlink="http://www.w3.org/1999/xlink" width="200" height="200"><defs><style type="text/css"></style></defs><path d="M386.8 293.4h-31.2V231h31.2v62.4z m62.4-62.5H418v62.4h31.2v-62.4z m156.1 0h-31.2v62.4h31.2v-62.4z m62.4 0h-31.2v62.4h31.2v-62.4z m-343.4 0h-31.2v93.7h31.2v-93.7z m405.9 0H699v93.7h31.2v-93.7z m-187.3 0h-62.4v93.7h62.4v-93.7z m-31.3 405.9c-17.5 0-31.2 13.7-31.2 31.2s13.7 31.2 31.2 31.2 31.2-13.7 31.2-31.2c0.1-17.5-13.7-31.2-31.2-31.2z m374.7-343.4v437.1c0 86.2-69.9 156.1-156.1 156.1H293.1c-86.2 0-156.1-69.9-156.1-156.1V293.4c0-86.2 69.9-156.1 156.1-156.1h437.1c86.1 0 156.1 69.9 156.1 156.1z m-281 405.8c0-51.2-42.5-93.7-93.7-93.7s-93.7 42.5-93.7 93.7 42.5 93.7 93.7 93.7 93.7-42.5 93.7-93.7z m218.5-405.8c0-51.2-42.5-93.7-93.7-93.7h-437c-51.2 0-93.7 42.5-93.7 93.7v218.5H418L511.6 387l93.7 124.9h218.5V293.4z m0 0" p-id="3386"></path></svg>