<?xml version="1.0" standalone="no"?><!DOCTYPE svg PUBLIC "-//W3C//DTD SVG 1.1//EN" "http://www.w3.org/Graphics/SVG/1.1/DTD/svg11.dtd"><svg t="1578029573592" class="icon" viewBox="0 0 1024 1024" version="1.1" xmlns="http://www.w3.org/2000/svg" p-id="11900" xmlns:xlink="http://www.w3.org/1999/xlink" width="200" height="200"><defs><style type="text/css"></style></defs><path d="M867.2 390.3v403.9c0 10.1-2.1 19-6.2 26.6-4.1 7.6-8.7 13.9-13.8 19-7.4 7.4-14.8 12.5-22.4 15.6-7.6 3-15.3 4.5-23.1 4.5H216.2c-17.9-0.5-32.5-6.7-43.5-18.6-11.1-12-16.8-26-17.3-42.1V390.3L221.1 188c0-1.4 5.3-7.3 15.9-17.6 10.6-10.4 27.2-16.2 49.7-17.6H736c2.3-0.9 12.1 2 29.3 8.6 17.3 6.7 29.3 22.2 36.3 46.6l65.6 182.3z m-85.6-50.4l-40.7-121.5H277l-35.9 121.5h540.5zM646.6 644c9-9 13.5-21.2 13.5-36.6 0-15.4-4.5-27.6-13.5-36.6s-21.3-13.7-36.9-14.1H408.2c-15.7 0.5-28 5.2-36.9 14.1s-13.5 21.2-13.5 36.6c0 15.4 4.5 27.6 13.5 36.6s21.3 13.5 36.9 13.5h201.6c15.5-0.1 27.8-4.5 36.8-13.5z" p-id="11901"></path></svg>