<svg class="icon" viewBox="0 0 1024 1024" xmlns="http://www.w3.org/2000/svg" width="200" height="200"><defs><style/></defs><path d="M506 729.42l-44.09 76.34zm251.4-71.64l8.11-14.05-59.94 103.82zm-402.25-15.45l-44.78 77.5zM189.44 683a70.52 70.52 0 0 1-18-86.88 70.83 70.83 0 0 0 18 86.88zm592.76-69.16a70.87 70.87 0 0 0-21.66-83.4 70.55 70.55 0 0 1 21.66 83.4zm-21.7-83.42zM774.82 164a67.21 67.21 0 0 0-21.63-25.19A67.17 67.17 0 0 1 774.82 164zm-29.36-29.89a67.66 67.66 0 0 0-6.66-3 67.55 67.55 0 0 1 6.66 2.96zm-50.59-4.8A68.83 68.83 0 0 1 706 127a69.43 69.43 0 0 0-9.58 1.86z"/><path d="M714.32 101.46a93.28 93.28 0 0 0-80.87 46.46l-121 209.67-91.56-52.87A94.6 94.6 0 0 0 373.42 292a95.61 95.61 0 0 0-82.89 47.63L151.34 580.72c-26.23 45.43-10.52 104.07 34.92 130.28L530.6 909.83a94.59 94.59 0 0 0 47.4 12.71 95.6 95.6 0 0 0 82.88-47.62l139.21-241.08c26.23-45.44 10.52-104.08-34.91-130.31l-91.58-52.87L794.65 241c25.59-44.32 10.27-101.54-34.06-127.13a92.3 92.3 0 0 0-46.27-12.4zm-84 324.2l-74.6-43.07 121-209.67A42.71 42.71 0 0 1 702.94 153a43.85 43.85 0 0 1 11.38-1.51 43.13 43.13 0 0 1 37 64.53l-121 209.67zm105.43 219.62l-423-244.2 21-36.43a45.07 45.07 0 0 1 27.59-21 46.27 46.27 0 0 1 12-1.59 44.72 44.72 0 0 1 22.43 6l344.41 198.77a45.69 45.69 0 0 1 16.61 62l-21 36.44zm-449.22 65.91l-75.27-43.46a45.68 45.68 0 0 1-16.62-62l93.15-161.34 423 244.2-93.19 161.33A45 45 0 0 1 590 871a46.26 46.26 0 0 1-12 1.59 44.7 44.7 0 0 1-22.42-6l-74.94-43.26 47-81.39a24.78 24.78 0 0 0 3.36-12.49 25 25 0 0 0-46.63-12.57l-47 81.39-107.54-62.08 47-81.39a24.75 24.75 0 0 0 3.33-12.43 25.06 25.06 0 0 0-12.48-21.72 24.79 24.79 0 0 0-12.43-3.33 25.07 25.07 0 0 0-21.73 12.48l-47 81.39z"/></svg>