<svg class="icon" viewBox="0 0 1024 1024" xmlns="http://www.w3.org/2000/svg" width="200" height="200"><defs><style/></defs><path d="M841.27 293.27H182.73a73.18 73.18 0 0 0-73 73v129.6a73.18 73.18 0 0 0 73 73h658.54a73.18 73.18 0 0 0 73-73V366.23a73.18 73.18 0 0 0-73-72.96zM636.42 431a32.34 32.34 0 0 1-32.25 32.25H419.82A32.34 32.34 0 0 1 387.58 431a32.34 32.34 0 0 1 32.25-32.25h184.35A32.34 32.34 0 0 1 636.42 431zm204.85 207.71H182.73a73.18 73.18 0 0 0-73 73v129.6a73.18 73.18 0 0 0 73 73h658.54a73.18 73.18 0 0 0 73-73V711.67a73.18 73.18 0 0 0-73-72.96zM636.42 776.47a32.34 32.34 0 0 1-32.25 32.25H419.82a32.34 32.34 0 0 1-32.25-32.25 32.34 32.34 0 0 1 32.25-32.25h184.36a32.34 32.34 0 0 1 32.25 32.25zm92.04-666.7H295.54a86.36 86.36 0 0 0-69.13 34.6l-59.13 79h689.44l-59.13-79a86.36 86.36 0 0 0-69.13-34.6z"/></svg>