<?xml version="1.0" standalone="no"?><!DOCTYPE svg PUBLIC "-//W3C//DTD SVG 1.1//EN" "http://www.w3.org/Graphics/SVG/1.1/DTD/svg11.dtd"><svg t="1575622273231" class="icon" viewBox="0 0 1024 1024" version="1.1" xmlns="http://www.w3.org/2000/svg" p-id="2735" xmlns:xlink="http://www.w3.org/1999/xlink" width="200" height="200"><defs><style type="text/css"></style></defs><path d="M668 111.9c-13.8 0-25 11.2-25 25v53.7H381v-53.7c0-6.9-2.8-13.1-7.3-17.7-4.5-4.5-10.8-7.3-17.7-7.3-13.8 0-25 11.2-25 25v53.7h-73.7c-63.3 0-115 51.8-115 115V797c0 63.3 51.8 115 115 115h509.4c63.3 0 115-51.8 115-115V305.6c0-63.3-51.8-115-115-115H693v-53.7c0-6.9-2.8-13.1-7.3-17.7-4.6-4.5-10.8-7.3-17.7-7.3z m0 209.7c13.8 0 25-11.2 25-25v-56h73.7c17.2 0 33.5 6.8 45.9 19.2 12.3 12.4 19.1 28.6 19.1 45.9V797c0 17.2-6.8 33.5-19.1 45.9-12.4 12.4-28.7 19.2-45.9 19.2H257.3c-17.2 0-33.5-6.8-45.9-19.2-12.3-12.3-19.1-28.6-19.1-45.9V305.6c0-17.2 6.8-33.5 19.1-45.9 12.3-12.4 28.6-19.2 45.9-19.2H331v56c0 13.8 11.2 25 25 25s25-11.2 25-25v-56h262v56c0 13.8 11.2 25.1 25 25.1z" p-id="2736"></path><path d="M698 465.3H326c-13.8 0-25 11.2-25 25s11.2 25 25 25h372c13.8 0 25-11.2 25-25s-11.2-25-25-25zM698 655.9H326c-13.8 0-25 11.2-25 25s11.2 25 25 25h372c13.8 0 25-11.2 25-25s-11.2-25-25-25z" p-id="2737"></path></svg>