<?xml version="1.0" standalone="no"?><!DOCTYPE svg PUBLIC "-//W3C//DTD SVG 1.1//EN" "http://www.w3.org/Graphics/SVG/1.1/DTD/svg11.dtd"><svg t="1575622153033" class="icon" viewBox="0 0 1024 1024" version="1.1" xmlns="http://www.w3.org/2000/svg" p-id="2509" xmlns:xlink="http://www.w3.org/1999/xlink" width="200" height="200"><defs><style type="text/css"></style></defs><path d="M337.3 312.41h344.24v50H337.3zM337.3 442.59h270.3v50H337.3zM337.3 572.77h270.3v50H337.3z" p-id="2510"></path><path d="M713.68 136.53H310.33a146.75 146.75 0 0 0-146.75 146.75v457.45a146.75 146.75 0 0 0 146.75 146.74h272.83a55.59 55.59 0 0 0 39.31-16.28l33.72-33.72 154.23-154.24 29.37-29.37a70.44 70.44 0 0 0 20.63-49.81V283.28a146.75 146.75 0 0 0-146.74-146.75z m-57.5 630.23v-45.7A37.87 37.87 0 0 1 694 683.23h45.7zM694 633.23a87.83 87.83 0 0 0-87.83 87.83v80.11a36.3 36.3 0 0 1-36.3 36.3H310.33a96.75 96.75 0 0 1-96.75-96.75V283.28a96.75 96.75 0 0 1 96.75-96.75h403.35a96.86 96.86 0 0 1 96.74 96.75v319.81a30.14 30.14 0 0 1-30.14 30.14z" p-id="2511"></path></svg>