<svg class="icon" viewBox="0 0 1024 1024" xmlns="http://www.w3.org/2000/svg" width="200" height="200"><defs><style/></defs><path d="M684.29 466.45a81.35 81.35 0 0 1-5.29 13.62h.06l-.3.53c-15.38 32.95-55.52 97.57-55.52 97.57a2.15 2.15 0 0 0-.21-.4l-11.73 20.45h56.54L559.87 742l24.51-97.83h-44.49l15.46-64.69c-12.51 3-27.29 7.17-44.79 12.81 0 0-23.68 13.89-68.22-26.72 0 0-30-26.5-12.62-33.13 7.41-2.82 36-6.39 58.43-9.43 30.36-4.11 49-6.29 49-6.29s-93.61 1.4-115.81-2.1S371 474 365 441.42c0 0-9.28-17.91 20-9.43s150.27 33 150.27 33-157.4-48.33-167.88-60.12-30.82-64.36-28.17-96.67c0 0 1.15-8.05 9.39-5.89 0 0 116.36 53.26 195.93 82.41s148.75 44 139.81 81.73z"/><path d="M512 80a432.12 432.12 0 0 1 168.15 830.06 432.12 432.12 0 0 1-336.3-796.12A429.28 429.28 0 0 1 512 80m0-16C264.58 64 64 264.58 64 512s200.58 448 448 448 448-200.58 448-448S759.42 64 512 64z"/></svg>