<?xml version="1.0" standalone="no"?><!DOCTYPE svg PUBLIC "-//W3C//DTD SVG 1.1//EN" "http://www.w3.org/Graphics/SVG/1.1/DTD/svg11.dtd"><svg t="1576562606574" class="icon" viewBox="0 0 1024 1024" version="1.1" xmlns="http://www.w3.org/2000/svg" p-id="1408" xmlns:xlink="http://www.w3.org/1999/xlink" width="200" height="200"><defs><style type="text/css"></style></defs><path d="M513.67 859.73A348.81 348.81 0 0 1 213.1 334.07a350.6 350.6 0 0 1 126.32-125.2 40 40 0 1 1 40 69.27A268.61 268.61 0 0 0 244.94 511a268.73 268.73 0 1 0 500.4-136.29 270.43 270.43 0 0 0-97.44-96.58 40 40 0 1 1 40-69.27A348.6 348.6 0 0 1 862.4 511a348.48 348.48 0 0 1-348.73 348.73z" p-id="1409"></path><path d="M511.33 550.33a40 40 0 0 1-40-40V192.61a40 40 0 0 1 80 0v317.72a40 40 0 0 1-40 40z" p-id="1410"></path></svg>