<svg class="icon" viewBox="0 0 1024 1024" xmlns="http://www.w3.org/2000/svg" width="200" height="200"><defs><style/></defs><path d="M841.7 585.49v-2.92c0-1.51-.08-3-.13-4.51q-.11-3-.26-6-.47-8.61-1.36-17.1c-11.79-112-79.64-207.31-175-257.38V156.91h49.75a25 25 0 1 0 0-50h-406a25 25 0 0 0 0 50h49.8v140.7A330.73 330.73 0 0 0 191.2 511l-.06.26c-.37 1.49-.72 3-1.07 4.5s-.72 3.17-1.06 4.77c-.34 1.6-.67 3.2-1 4.81s-.63 3.21-.92 4.83q-1.34 7.26-2.34 14.63c-.22 1.58-.43 3.16-.62 4.75a1.68 1.68 0 0 1-.07.58q-.27 2.25-.51 4.53c-.18 1.65-.34 3.3-.49 5-.12 1.25-.22 2.49-.32 3.74v.6c0 .48-.08 1-.11 1.42-.09 1.1-.16 2.2-.23 3.3v.54c0 .57-.07 1.14-.1 1.72s-.08 1.39-.11 2.08a166.2 166.2 0 0 0-.17 3.89 12.54 12.54 0 0 1-.07 1.62c0 .73 0 1.45-.06 2.18a2.53 2.53 0 0 0 0 .28c0 1.26-.06 2.53-.08 3.8v5.09c0 182.2 147.7 330 330 330a331.74 331.74 0 0 0 66.49-6.7q5.73-1.17 11.38-2.54 4.25-1 8.43-2.16 2.8-.75 5.59-1.56 5.55-1.61 11-3.4l2.74-.91a331.11 331.11 0 0 0 189.33-164.8c.85-1.69 1.68-3.39 2.51-5.1q2.42-5.14 4.76-10.34a327 327 0 0 0 16.23-46c.36-1.31.71-2.62 1-3.94.68-2.64 1.32-5.29 1.94-8q1.16-5 2.15-10t1.85-10.15a332.5 332.5 0 0 0 4.49-54.41zM408.5 156.91h206.4v119.5a331 331 0 0 0-206.4 0zM235.37 544.65A280 280 0 0 1 381.7 341.81a286.93 286.93 0 0 1 42.4-18 280.53 280.53 0 0 1 360.8 204.6c-241.84-96.72-370.2 127.82-549.53 16.24z"/><path d="M603.59 906.95q5.55-1.61 11-3.4-5.44 1.8-11 3.4zm203.18-169.1a330.82 330.82 0 0 1-189.42 164.79 331.11 331.11 0 0 0 189.42-164.79zm7.23-15.44q-2.28 5.22-4.76 10.35 2.46-5.15 4.76-10.35zm19.25-58q-.91 4-1.94 8c.69-2.65 1.32-5.3 1.94-8zm2.15-10q-1 5-2.15 10 1.16-4.94 2.15-10zm5.83-82.32q-.47-8.61-1.36-17.1c.62 5.69 1.07 11.42 1.36 17.1zM340.7 509.91a28 28 0 1 0 56 0 28 28 0 1 0-56 0zm111.3-110a28 28 0 1 0 56 0 28 28 0 1 0-56 0zm167.3 28a28 28 0 1 0 56 0 28 28 0 1 0-56 0z"/></svg>