<?xml version="1.0" standalone="no"?><!DOCTYPE svg PUBLIC "-//W3C//DTD SVG 1.1//EN" "http://www.w3.org/Graphics/SVG/1.1/DTD/svg11.dtd"><svg t="1580980203935" class="icon" viewBox="0 0 1024 1024" version="1.1" xmlns="http://www.w3.org/2000/svg" p-id="8555" xmlns:xlink="http://www.w3.org/1999/xlink" width="200" height="200"><defs><style type="text/css"></style></defs><path d="M512 64C264.58 64 64 264.58 64 512s200.58 448 448 448 448-200.58 448-448S759.42 64 512 64z m-54 631.4h-58.83a73.74 73.74 0 0 1-73.66-73.66V563h36v58.79a37.7 37.7 0 0 0 37.66 37.66H458z m0-330.8h-58.83a37.7 37.7 0 0 0-37.66 37.66V461h-36v-58.74a73.74 73.74 0 0 1 73.66-73.66H458z m240.49 257.14a73.74 73.74 0 0 1-73.66 73.66H566v-36h58.79a37.7 37.7 0 0 0 37.66-37.66V563h36z m0-160.69h-36v-58.79a37.7 37.7 0 0 0-37.66-37.66H566v-36h58.79a73.74 73.74 0 0 1 73.66 73.66z" p-id="8556"></path></svg>