<?xml version="1.0" standalone="no"?><!DOCTYPE svg PUBLIC "-//W3C//DTD SVG 1.1//EN" "http://www.w3.org/Graphics/SVG/1.1/DTD/svg11.dtd"><svg t="1578625835744" class="icon" viewBox="0 0 1024 1024" version="1.1" xmlns="http://www.w3.org/2000/svg" p-id="4451" xmlns:xlink="http://www.w3.org/1999/xlink" width="200" height="200"><defs><style type="text/css"></style></defs><path d="M512 101.2c-226.9 0-410.8 183.9-410.8 410.8S285.1 922.8 512 922.8 922.8 738.9 922.8 512 738.9 101.2 512 101.2z m220.3 574c16 16 16 42 0 58-8 8-18.5 12-29 12s-21-4-29-12L511.6 570.4 349 733c-8 8-18.5 12-29 12s-21-4-29-12c-16-16-16-42 0-58l162.6-162.6-163.3-163.2c-16-16-16-42 0-58s42-16 58 0l163.2 163.2L675 291c16-16 42-16 58 0s16 42 0 58L569.5 512.5l162.8 162.7z" fill="#d81e06" p-id="4452"></path></svg>