<?xml version="1.0" standalone="no"?><!DOCTYPE svg PUBLIC "-//W3C//DTD SVG 1.1//EN" "http://www.w3.org/Graphics/SVG/1.1/DTD/svg11.dtd"><svg t="1581041792020" class="icon" viewBox="0 0 1024 1024" version="1.1" xmlns="http://www.w3.org/2000/svg" p-id="7512" xmlns:xlink="http://www.w3.org/1999/xlink" width="200" height="200"><defs><style type="text/css"></style></defs><path d="M791.42 332.94v27.67H295.36a69.81 69.81 0 0 0-67.9 53.61L143.54 766V241.32A47.37 47.37 0 0 1 190.91 194h225.57a47.37 47.37 0 0 1 47.37 47.37v44.25h280.2a47.37 47.37 0 0 1 47.37 47.32z" p-id="7513"></path><path d="M879.26 461.81l-79.94 335.13A43.11 43.11 0 0 1 757.39 830H177.71l92.61-388.2a43.11 43.11 0 0 1 41.93-33.11h525.08a43.11 43.11 0 0 1 41.93 53.12z" p-id="7514"></path></svg>