<?xml version="1.0" standalone="no"?><!DOCTYPE svg PUBLIC "-//W3C//DTD SVG 1.1//EN" "http://www.w3.org/Graphics/SVG/1.1/DTD/svg11.dtd"><svg t="1578375345520" class="icon" viewBox="0 0 1024 1024" version="1.1" xmlns="http://www.w3.org/2000/svg" p-id="2800" xmlns:xlink="http://www.w3.org/1999/xlink" width="200" height="200"><defs><style type="text/css"></style></defs><path d="M510.8 102.4C283.9 102.4 100 286.3 100 513.2S283.9 924 510.8 924s410.8-183.9 410.8-410.8-183.9-410.8-410.8-410.8zM781 320.2C767 341.5 707 394 636 492S520.4 683.9 509 707.9c-11.3 24-25 44.8-49.6 19-14-14.7-134.5-148.6-160.8-178.5-10.9-12.4-10-33.8 0.1-47.6 11.1-15.3 35.2-21.3 56.6-3.1 20.2 17.2 95.6 79.8 95.6 79.8s72-82.5 125.5-137S749 294.3 759 289.7c12-5.6 36 9.3 22 30.5z" p-id="2801"></path></svg>