<?xml version="1.0" standalone="no"?><!DOCTYPE svg PUBLIC "-//W3C//DTD SVG 1.1//EN" "http://www.w3.org/Graphics/SVG/1.1/DTD/svg11.dtd"><svg t="1576562588461" class="icon" viewBox="0 0 1024 1024" version="1.1" xmlns="http://www.w3.org/2000/svg" p-id="1171" xmlns:xlink="http://www.w3.org/1999/xlink" width="200" height="200"><defs><style type="text/css"></style></defs><path d="M712 830.78H306.14a114.74 114.74 0 0 1-114.61-114.61V310.28a114.74 114.74 0 0 1 114.61-114.62h128.37a38.2 38.2 0 0 1 0 76.41H306.14a38.25 38.25 0 0 0-38.2 38.2v405.9a38.25 38.25 0 0 0 38.2 38.2H712a38.25 38.25 0 0 0 38.21-38.2v-136.3a38.2 38.2 0 1 1 76.41 0v136.3A114.74 114.74 0 0 1 712 830.78z" p-id="1172"></path><path d="M826.65 310.28v178.85a38.21 38.21 0 1 1-76.41 0V327.71L529.33 548.62a38.21 38.21 0 0 1-54-54l222.49-222.55H539.57a38.21 38.21 0 1 1 0-76.41H712a114.74 114.74 0 0 1 114.65 114.62z" p-id="1173"></path></svg>