<svg class="icon" viewBox="0 0 1024 1024" xmlns="http://www.w3.org/2000/svg" width="200" height="200"><defs><style/></defs><path d="M745.1 349.6c0-62.3-24.2-120.8-68.3-164.8-44-44-102.6-68.3-164.8-68.3s-120.8 24.2-164.8 68.3c-44 44-68.3 102.6-68.3 164.8s24.2 120.8 68.3 164.8c15.7 15.7 33.3 28.9 52.2 39.4-39 15.3-74.9 38.6-105.4 69.2-58.2 58.2-90.3 135.7-90.3 218 0 10.5.5 21.1 1.6 31.5 1.3 12.9 12.2 22.5 24.8 22.5.8 0 1.7 0 2.6-.1 13.7-1.4 23.7-13.7 22.3-27.4-.9-8.7-1.3-17.6-1.3-26.4 0-69 26.9-133.9 75.7-182.6 48.8-48.8 113.6-75.7 182.6-75.7 41.7 0 81.5 9.6 118.3 28.6 12.3 6.3 27.3 1.5 33.7-10.7 6.3-12.3 1.5-27.3-10.7-33.7-9.4-4.8-19-9.2-28.8-13 19-10.5 36.6-23.7 52.4-39.5 43.9-44.1 68.2-102.6 68.2-164.9zM512 532.7c-101 0-183.1-82.1-183.1-183.1S411 166.5 512 166.5s183.1 82.1 183.1 183.1S613 532.7 512 532.7zm349.8 228.5c0 6.9-2.8 13.1-7.3 17.7-4.5 4.5-10.8 7.3-17.7 7.3h-83.7v83.7c0 13.8-11.2 25-25 25-6.9 0-13.1-2.8-17.7-7.3-4.5-4.5-7.3-10.8-7.3-17.7v-83.7h-83.7c-13.8 0-25-11.2-25-25 0-6.9 2.8-13.1 7.3-17.7 4.5-4.5 10.8-7.3 17.7-7.3h83.7v-83.7c0-13.8 11.2-25 25-25 6.9 0 13.1 2.8 17.7 7.3 4.5 4.5 7.3 10.8 7.3 17.7v83.7h83.7c13.8 0 25 11.3 25 25z"/></svg>