<?xml version="1.0" standalone="no"?><!DOCTYPE svg PUBLIC "-//W3C//DTD SVG 1.1//EN" "http://www.w3.org/Graphics/SVG/1.1/DTD/svg11.dtd"><svg t="1577428756216" class="icon" viewBox="0 0 1024 1024" version="1.1" xmlns="http://www.w3.org/2000/svg" p-id="7718" xmlns:xlink="http://www.w3.org/1999/xlink" width="200" height="200"><defs><style type="text/css"></style></defs><path d="M880 222.4H684.4v-26.9c0-49.7-41.5-90.1-92.5-90.1H432.1c-51 0-92.5 40.4-92.5 90.1v26.9H144c-6.9 0-13.1 2.8-17.7 7.3-4.5 4.5-7.3 10.8-7.3 17.7 0 13.8 11.2 25 25 25h48.1v510.8c0 74.7 60.7 135.4 135.4 135.4h369.1c74.7 0 135.4-60.7 135.4-135.4V272.4h48c6.9 0 13.1-2.8 17.7-7.3 4.5-4.5 7.3-10.8 7.3-17.7 0-13.7-11.2-25-25-25z m-490.4-26.9c0-22.1 19.1-40.1 42.5-40.1h159.8c23.4 0 42.5 18 42.5 40.1v26.9H389.6v-26.9z m392.3 587.7c0 47.1-38.3 85.4-85.4 85.4h-369c-47.1 0-85.4-38.3-85.4-85.4V272.4H782v510.8z" p-id="7719"></path><path d="M361.3 748.4c-13.8 0-25-11.2-25-25v-298c0-13.7 11.2-25 25-25s25 11.2 25 25v298c0 13.8-11.2 25-25 25zM662.7 748.4c-13.8 0-25-11.2-25-25v-298c0-13.7 11.2-25 25-25 13.7 0 25 11.2 25 25v298c0 13.8-11.3 25-25 25zM512 748.4c-13.8 0-25-11.2-25-25v-298c0-13.7 11.2-25 25-25s25 11.2 25 25v298c0 13.8-11.3 25-25 25z" p-id="7720"></path></svg>