<?xml version="1.0" standalone="no"?><!DOCTYPE svg PUBLIC "-//W3C//DTD SVG 1.1//EN" "http://www.w3.org/Graphics/SVG/1.1/DTD/svg11.dtd"><svg t="1578891776491" class="icon" viewBox="0 0 1024 1024" version="1.1" xmlns="http://www.w3.org/2000/svg" p-id="10071" xmlns:xlink="http://www.w3.org/1999/xlink" width="200" height="200"><defs><style type="text/css"></style></defs><path d="M512 504.84a112.33 112.33 0 0 0-25 221.85v45.48a25 25 0 1 0 50 0v-45.48a112.33 112.33 0 0 0-25-221.85z m0 174.66a62.33 62.33 0 1 1 62.33-62.33A62.4 62.4 0 0 1 512 679.5z" p-id="10072"></path><path d="M699.91 396h-349.2v-50.69C350.71 256.37 423.06 184 512 184s161.29 72.35 161.29 161.29V361a25 25 0 0 0 50 0v-15.69C723.29 228.8 628.51 134 512 134s-211.29 94.8-211.29 211.31v53.08C238.31 410.3 191 465.27 191 531.09v225.82C191 831.4 251.6 892 326.09 892h373.82C774.4 892 835 831.4 835 756.91V531.09C835 456.6 774.4 396 699.91 396zM785 756.91A85.18 85.18 0 0 1 699.91 842H326.09A85.18 85.18 0 0 1 241 756.91V531.09A85.18 85.18 0 0 1 326.09 446h373.82A85.18 85.18 0 0 1 785 531.09z" p-id="10073"></path></svg>