<svg class="icon" viewBox="0 0 1024 1024" xmlns="http://www.w3.org/2000/svg" width="200" height="200"><defs><style/></defs><path d="M345 337.5c-7 0-12.7 5.7-12.7 12.7 0 7 5.7 12.7 12.7 12.7 7 0 12.7-5.7 12.7-12.7 0-7.1-5.7-12.7-12.7-12.7zm131.8 29.3c5-7.8 8.3-16.7 9.3-26.4.2-1.6.3-3.2.3-4.8v-.6c0-3.3-.5-6.6-1.4-9.6-4.4-15.6-18.8-27.1-35.9-27.1-7.1 0-13.7 2-19.3 5.4-.7.4-1.3.8-2 1.3h-.1c-4 2.6-7.8 5.6-11.3 8.9-6 5.6-11.2 12.1-15.3 19.3 3.6 1 7.2 2.1 10.8 3.3h.1c15.1 5 29.7 11.1 43.7 18.3 5.8 3 11.6 6.2 17.2 9.6l3.9 2.4z"/><path d="M449.7 123.9c-245.2 35.7-317.5 180-349.8 389.5s142.1 370 349.8 388.5c207.7 18.5 413.7-65.5 459.7-343.7C955.5 280 695 88.2 449.7 123.9zm292 288.4c-2.6.6-5.1-1-5.8-3.5-4-15.1-10.2-29.7-19.4-41.7-4.6-6-10-11.3-16-15.7-6-4.3-12.6-7.7-19.7-9.7-14-4.3-29.4-3.7-43.3.9-14 4.6-26.7 13-35.8 24.1-9.2 11.1-14.4 24.8-14.3 38.6 0 3.5.4 6.9.9 10.3.7 3.4 1.5 6.8 2.7 10.2 2.3 6.7 5.6 13.1 9.7 19.2 1.1 1.5 2.1 3 3.2 4.5 1 1.3 2.1 2.7 3.3 4 2.3 2.6 4.9 5 7.6 7.3 5.5 4.6 11.7 8.8 18.4 12.8 13.3 8 28 15.3 42.3 25 7.1 4.8 14.2 10.2 20.7 16.5 6.5 6.2 12.5 13.3 17.4 21.1 5 7.8 9 16.2 11.9 24.8 3 8.6 5 17.5 6.2 26.3 1.2 8.8 1.8 17.6 1.8 26.3 0 2.2 0 4.3-.1 6.5s-.2 4.5-.4 6.7c-.3 4.5-.8 9-1.6 13.5-1.5 9-3.9 17.9-7.1 26.5-3.3 8.6-7.5 16.9-12.5 24.7-10 15.6-23.3 28.9-38.4 39.3-15.1 10.4-32 18-49.7 22.6-17.7 4.6-36.3 6.3-54.9 4.3-9.1-.9-18.3-2.8-27.3-5.7-20.4 11.9-44.2 18.6-69.5 18.6-11 0-21.7-1.3-32-3.7-14.7-3.5-28.5-9.2-41-17-.6-.4-1.2-.8-1.8-1.1h-66.5c1.2-12.4 11.7-22.1 24.3-22.1 3.5 0 7 .2 10.4.5 2.2.2 4.3.5 6.4.8 1.4.2 2.7.4 4.1.7-2.5-3.9-4.5-8.1-6-12.6-2-6-3.1-12.4-3.1-19 0-11.9 3.5-22.9 9.5-32.2 2.2-3.4 4.7-6.5 7.5-9.4.6-6.9.9-13.9.9-21 0-15.6-1.6-30.9-4.5-45.7-.5-2.4-1-4.9-1.6-7.3-8.5 12.4-19.5 22.9-32.4 30.8l-3.6 2.1h-.1c-.9.3-1.9.4-2.9.4-2 0-3.9-.6-5.4-1.6-2.6-1.8-4.3-4.7-4.3-8.1 0-1.4.3-2.9.9-4 1.2-1.7 2.3-2.8 3.6-4.2 1.8-2.3 3.5-4.6 5.1-7.1 5-7.8 8.8-16.4 11.1-25.6 1.7-6.6 2.5-13.6 2.5-20.7 0-16.6-4.7-32.1-12.9-45.2-3.5-5.6-7-11.4-11.6-16.1-7.7-7.7-14.8-16-21.2-24.8-9.3-12.6-17.2-26.3-23.6-40.7-9.6-21.7-15.8-45.2-17.9-69.9-.2-1.9-.3-3.7-.4-5.6 0-8.8 5.7-15.7 14.7-16.8h.2c1-.1 1.9-.2 2.9-.3h.1c11.4-1.3 23-2 34.7-2 5.2 0 10.3.1 15.3.4 11.4.6 22.7 1.8 33.8 3.6 8.3 1.4 16.5 3.1 24.6 5.1 10.5-19 28.2-33.5 49.5-39.6 5.8-1.7 11.8-2.7 18-3.1h.1c2 0 3.9.2 5.8.5 3.4.5 6.7 1.4 9.8 2.7 10.1 4 18.4 11.4 23.5 20.8 2 3.6 3.5 7.6 4.4 11.7v.1l.9 5.7v.1c.8 5.8 1.2 11.8 1.2 17.8 0 12.3-1.7 24.1-4.9 35.4-5.6 19.8-15.8 37.6-29.4 52.3 18.8-8.3 34.5-22.2 45.1-39.5 6.6 5.7 12.9 11.7 18.9 18 3 3.1 5.9 6.2 8.7 9.4 11.6 13.1 22.1 27.3 31.3 42.3 4 6.5 7.8 13.2 11.2 20 4.7 9.2 9 18.7 12.8 28.4C611.8 547.9 619 584.7 619 623c0 2.1 0 4.2-.1 6.2v.1c-.1 7.3-.6 14.5-1.2 21.6v.1c-3.9 26.5-16.2 50.3-34.1 68.6 10.3.5 20.8-.5 31-2.7 13.7-3 26.9-8.3 38.8-15.8 11.8-7.4 22.1-17.1 30.1-28.4 8-11.3 13.5-24.3 16.3-38.1.7-3.5 1.3-7 1.7-10.5.2-1.8.3-3.5.5-5.3.1-1.9.2-3.7.3-5.6.3-7.5.2-14.9-.5-22.1-1.4-14.4-5.2-28.2-12.1-40.1-6.9-12-17.1-22.2-29.2-31.2-12.1-9-26-16.8-40.1-26.1-7-4.6-14.1-9.7-20.7-15.8-3.3-3-6.5-6.3-9.4-9.9-1.5-1.8-2.9-3.7-4.2-5.6-1.3-1.9-2.4-3.7-3.6-5.6-4.6-7.5-8.4-15.8-11.1-24.5-1.4-4.3-2.3-8.8-2.9-13.4-.6-4.6-.9-9.2-.6-13.8.4-9.2 2.4-18.4 6-26.8.8-2.1 1.9-4.1 2.9-6.2 1.1-2 2.2-4 3.5-5.9 1.2-1.9 2.6-3.7 3.9-5.6 1.4-1.8 2.8-3.5 4.3-5.2 12-13.4 27.7-22.8 44.6-27.6 16.9-4.8 35.4-4.7 52.1 1.1 8.4 2.8 16.1 7.3 23.1 12.6 6.9 5.4 12.8 11.9 17.8 18.9 9.9 14.1 15.8 30.2 19.4 46.4.5 2.3-1.2 4.9-3.8 5.5z"/></svg>