<?xml version="1.0" standalone="no"?><!DOCTYPE svg PUBLIC "-//W3C//DTD SVG 1.1//EN" "http://www.w3.org/Graphics/SVG/1.1/DTD/svg11.dtd"><svg t="1575599271644" class="icon" viewBox="0 0 1325 1024" version="1.1" xmlns="http://www.w3.org/2000/svg" p-id="4079" xmlns:xlink="http://www.w3.org/1999/xlink" width="258.7890625" height="200"><defs><style type="text/css"></style></defs><path d="M949.149239 248.462944H369.055838c-14.554315 0-27.029442-11.435533-27.029442-27.029441s11.435533-27.029442 27.029442-27.029442h580.093401c14.554315 0 27.029442 11.435533 27.029441 27.029442s-12.475127 27.029442-27.029441 27.029441zM949.149239 495.886294H369.055838c-14.554315 0-27.029442-11.435533-27.029442-27.029441s11.435533-27.029442 27.029442-27.029442h580.093401c14.554315 0 27.029442 11.435533 27.029441 27.029442s-12.475127 27.029442-27.029441 27.029441zM949.149239 742.270051H369.055838c-14.554315 0-27.029442-11.435533-27.029442-27.029442s11.435533-27.029442 27.029442-27.029441h580.093401c14.554315 0 27.029442 11.435533 27.029441 27.029441s-12.475127 27.029442-27.029441 27.029442z" p-id="4080"></path></svg>