<svg class="icon" viewBox="0 0 1024 1024" xmlns="http://www.w3.org/2000/svg" width="200" height="200"><defs><style/></defs><path d="M512 271.6c43.5 0 80.8-35.2 80.8-80.8 0-43.5-35.2-80.8-80.8-80.8-43.5 0-80.8 35.2-80.8 80.8 0 43.5 37.3 80.8 80.8 80.8zm0 159.6c-43.5 0-80.8 35.2-80.8 80.8 0 45.6 35.2 80.8 80.8 80.8 43.5 0 80.8-35.2 80.8-80.8 0-45.6-37.3-80.8-80.8-80.8zm0 321.2c-43.5 0-80.8 35.2-80.8 80.8 0 43.5 35.2 80.8 80.8 80.8 43.5 0 80.8-35.2 80.8-80.8 0-43.5-37.3-80.8-80.8-80.8zm0 0"/></svg>