<?xml version="1.0" standalone="no"?><!DOCTYPE svg PUBLIC "-//W3C//DTD SVG 1.1//EN" "http://www.w3.org/Graphics/SVG/1.1/DTD/svg11.dtd"><svg t="1577932093335" class="icon" viewBox="0 0 1024 1024" version="1.1" xmlns="http://www.w3.org/2000/svg" p-id="2776" xmlns:xlink="http://www.w3.org/1999/xlink" width="200" height="200"><defs><style type="text/css"></style></defs><path d="M327.5 166.1c0 38.2 30.9 69.2 69.1 69.2s69.2-30.9 69.2-69.1v-0.1c0-38.2-31-69.2-69.2-69.2s-69.1 31-69.1 69.2zM327.5 396.7c0 38.2 30.9 69.2 69.1 69.2s69.2-30.9 69.2-69.1v-0.1c0-38.2-31-69.2-69.2-69.2s-69.1 31-69.1 69.2zM327.5 627.3c0 38.2 30.9 69.2 69.1 69.2s69.2-30.9 69.2-69.1v-0.1c0-38.2-31-69.2-69.2-69.2s-69.1 31-69.1 69.2zM327.5 857.8c0 38.2 30.9 69.2 69.1 69.2 38.2 0 69.2-30.9 69.2-69.1v-0.1c0-38.2-31-69.2-69.2-69.2s-69.1 31-69.1 69.2zM558.1 166.1c0 38.2 31 69.2 69.2 69.2s69.2-31 69.2-69.2-31-69.1-69.2-69.1-69.2 30.9-69.2 69.1zM558.1 396.7c0 38.2 31 69.2 69.2 69.2s69.2-31 69.2-69.2-31-69.2-69.2-69.2-69.2 31-69.2 69.2zM558.1 627.3c0 38.2 31 69.2 69.2 69.2s69.2-31 69.2-69.2-31-69.2-69.2-69.2-69.2 31-69.2 69.2zM558.1 857.8c0 38.2 31 69.2 69.2 69.2s69.2-31 69.2-69.2-31-69.2-69.2-69.2c-38.2 0.1-69.2 31-69.2 69.2z" p-id="2777"></path></svg>