<svg class="icon" viewBox="0 0 1024 1024" xmlns="http://www.w3.org/2000/svg" width="200" height="200"><defs><style/></defs><path d="M526.24 886.55a80 80 0 0 1-48.82-17L292.83 728.21a42.25 42.25 0 0 0-25.72-9.15h-39.57c-35.78 0-69.09-15.6-93.81-43.91-23.37-26.77-36.24-62-36.24-99.26V448.11c0-37.23 12.87-72.48 36.24-99.26 24.72-28.32 58-43.92 93.81-43.92h39.57a42.25 42.25 0 0 0 25.72-9.15l184.6-141.35c24.93-19.09 56.41-22.29 84.2-8.57 30.35 15 49.2 46.64 49.2 82.63v567c0 36-18.85 67.64-49.2 82.63a79.71 79.71 0 0 1-35.39 8.43zm-298.7-501.6c-12.33 0-24.24 5.87-33.54 16.52-10.65 12.2-16.51 28.77-16.51 46.65v127.77c0 17.88 5.86 34.45 16.51 46.65 9.3 10.65 21.21 16.52 33.54 16.52h39.57c26.74 0 52.46 8.86 74.36 25.64L526.06 806l.36.26c1.49-.85 4.4-4.23 4.4-10.79v-567c0-6.57-2.91-9.94-4.4-10.79l-.36.26-184.6 141.37c-21.9 16.77-47.61 25.64-74.36 25.64zM677.56 696A45 45 0 0 1 655 612a115.44 115.44 0 0 0 0-200 45 45 0 1 1 45-78 205.41 205.41 0 0 1 0 356 44.8 44.8 0 0 1-22.44 6z"/><path d="M743.14 799.76a45 45 0 0 1-23.23-83.57 238 238 0 0 0 0-408.36 45 45 0 1 1 46.37-77.13 328 328 0 0 1 0 562.63 44.8 44.8 0 0 1-23.14 6.43z"/></svg>