<?xml version="1.0" standalone="no"?><!DOCTYPE svg PUBLIC "-//W3C//DTD SVG 1.1//EN" "http://www.w3.org/Graphics/SVG/1.1/DTD/svg11.dtd"><svg t="1581149128016" class="icon" viewBox="0 0 1077 1024" version="1.1" xmlns="http://www.w3.org/2000/svg" p-id="4924" xmlns:xlink="http://www.w3.org/1999/xlink" width="210.3515625" height="200"><defs><style type="text/css"></style></defs><path d="M0.0005 933.457a456.738 85.342 0 1 0 913.475 0 456.738 85.342 0 1 0-913.475 0z" fill="#F5F5F7" fill-opacity=".8" p-id="4925"></path><path d="M822.1245 682.739l-161.18-198.367c-7.733-9.337-19.037-14.99-30.941-14.99H283.4595c-11.897 0-23.201 5.653-30.935 14.99L91.3525 682.74V786.37H822.1305V682.74h-0.007z" fill="#AEB8C2" p-id="4926"></path><path d="M775.3905 794.166L634.5435 624.99c-6.743-8.131-16.89-12.577-27.27-12.577H305.0705c-10.375 0-20.527 4.446-27.27 12.577L136.9525 794.166v92.914H775.3905v-92.914z" p-id="4927"></path><path d="M227.9075 213.356h457.654a26.947 26.947 0 0 1 26.948 26.947v628.844a26.947 26.947 0 0 1-26.948 26.947H227.9075a26.947 26.947 0 0 1-26.947-26.947V240.303a26.947 26.947 0 0 1 26.947-26.947z" fill="#F5F5F7" p-id="4928"></path><path d="M287.5155 280.408h338.439a13.474 13.474 0 0 1 13.473 13.473v168.132a13.474 13.474 0 0 1-13.473 13.473h-338.44a13.474 13.474 0 0 1-13.473-13.473V293.88a13.474 13.474 0 0 1 13.474-13.473z m1.765 268.22h334.909a15.239 15.239 0 0 1 0 30.478H289.2805a15.239 15.239 0 0 1 0-30.478z m0 79.246h334.909a15.245 15.245 0 0 1 0 30.484H289.2805a15.245 15.245 0 0 1 0-30.484zM820.6355 920.94c-5.221 20.689-23.559 36.11-45.373 36.11H138.2065c-21.814 0-40.151-15.428-45.366-36.11a49.24 49.24 0 0 1-1.495-12.06V682.746h177.3c19.584 0 35.368 16.492 35.368 36.514v0.27c0 20.015 15.967 36.176 35.55 36.176h234.342c19.584 0 35.55-16.31 35.55-36.332v-0.08c0-20.022 15.785-36.554 35.369-36.554h177.3v226.149a49.381 49.381 0 0 1-1.49 12.052zM842.9205 224.283l-46.012 17.853a6.737 6.737 0 0 1-8.873-8.287l13.05-41.815c-17.442-19.834-27.682-44.019-27.682-70.117C773.4035 54.582 841.5665 0 925.6565 0c84.069 0 152.239 54.582 152.239 121.917 0 67.334-68.164 121.916-152.246 121.916-30.505 0-58.907-7.181-82.729-19.55z" fill="#DCE0E6" p-id="4929"></path><path d="M966.4345 124.968a19.193 18.964 0 1 0 38.386 0 19.193 18.964 0 1 0-38.386 0zM884.8705 141.561h-38.386l19.524-33.185 18.863 33.185z m23.99-33.185h33.584v33.185H908.8605v-33.185z" fill="#FFFFFF" p-id="4930"></path></svg>