<?xml version="1.0" standalone="no"?><!DOCTYPE svg PUBLIC "-//W3C//DTD SVG 1.1//EN" "http://www.w3.org/Graphics/SVG/1.1/DTD/svg11.dtd"><svg t="1577692502267" class="icon" viewBox="0 0 1024 1024" version="1.1" xmlns="http://www.w3.org/2000/svg" p-id="6653" xmlns:xlink="http://www.w3.org/1999/xlink" width="200" height="200"><defs><style type="text/css"></style></defs><path d="M512.2 869.3c-48.1 0-94.7-9.4-138.6-28-42.4-17.9-80.5-43.6-113.2-76.3-32.7-32.7-58.4-70.8-76.3-113.2-18.6-43.9-28-90.6-28-138.6 0-48.1 9.4-94.7 28-138.6 17.9-42.4 43.6-80.5 76.3-113.2s70.8-58.4 113.2-76.3c43.9-18.6 90.6-28 138.6-28 48.1 0 94.7 9.4 138.6 28 42.4 17.9 80.5 43.6 113.2 76.3s58.4 70.8 76.3 113.2c18.6 43.9 28 90.6 28 138.6 0 48.1-9.4 94.7-28 138.6-17.9 42.4-43.6 80.5-76.3 113.2-32.7 32.7-70.8 58.4-113.2 76.3-43.9 18.6-90.6 28-138.6 28z m0-662.2c-81.8 0-158.6 31.8-216.4 89.7-57.8 57.8-89.7 134.7-89.7 216.4 0 81.8 31.8 158.6 89.7 216.4 57.8 57.8 134.7 89.7 216.4 89.7 81.8 0 158.6-31.8 216.4-89.7s89.7-134.7 89.7-216.4c0-81.8-31.8-158.6-89.7-216.4s-134.7-89.7-216.4-89.7z" p-id="6654"></path><path d="M512.2 640.9c-6.4 0-12.8-2.4-17.7-7.3L368 507.1c-9.8-9.8-9.8-25.6 0-35.4 9.8-9.8 25.6-9.8 35.4 0l108.8 108.8L621 471.7c9.8-9.8 25.6-9.8 35.4 0 9.8 9.8 9.8 25.6 0 35.4L529.8 633.6c-4.8 4.8-11.2 7.3-17.6 7.3z" p-id="6655"></path></svg>