<?xml version="1.0" standalone="no"?><!DOCTYPE svg PUBLIC "-//W3C//DTD SVG 1.1//EN" "http://www.w3.org/Graphics/SVG/1.1/DTD/svg11.dtd"><svg t="1581590137935" class="icon" viewBox="0 0 1024 1024" version="1.1" xmlns="http://www.w3.org/2000/svg" p-id="8542" xmlns:xlink="http://www.w3.org/1999/xlink" width="200" height="200"><defs><style type="text/css"></style></defs><path d="M642.92 524.62a74.1 74.1 0 0 0 52.4 126.51H877v154.62a67.73 67.73 0 0 1-67.73 67.73H214.71A67.74 67.74 0 0 1 147 805.75V391.29a67.73 67.73 0 0 1 67.73-67.73h594.56A67.73 67.73 0 0 1 877 391.29v111.62H695.32a73.88 73.88 0 0 0-52.4 21.71zM767.61 284.55L709.78 184.4a67.73 67.73 0 0 0-92.52-24.79L400.85 284.55z" p-id="8543"></path><path d="M691.94 577.02m-36.5 0a36.5 36.5 0 1 0 73 0 36.5 36.5 0 1 0-73 0Z" p-id="8544"></path></svg>