<?xml version="1.0" standalone="no"?><!DOCTYPE svg PUBLIC "-//W3C//DTD SVG 1.1//EN" "http://www.w3.org/Graphics/SVG/1.1/DTD/svg11.dtd"><svg t="1575622217431" class="icon" viewBox="0 0 1024 1024" version="1.1" xmlns="http://www.w3.org/2000/svg" p-id="2622" xmlns:xlink="http://www.w3.org/1999/xlink" width="200" height="200"><defs><style type="text/css"></style></defs><path d="M732.2 666.5c-15.8-15.8-33-29.7-51.4-41.6 71.3-52.1 117.6-136.4 117.6-231.4 0-158.2-128.2-286.4-286.4-286.4S225.6 235.3 225.6 393.5c0 95.1 46.3 179.3 117.6 231.4-18.4 11.9-35.6 25.8-51.4 41.6-58.8 58.8-91.2 137-91.2 220.2v25h622.9v-25c-0.1-83.1-32.5-161.3-91.3-220.2z m-438.1-181c-12.3-29.1-18.6-60.1-18.6-92s6.2-62.9 18.6-92c11.9-28.1 29-53.4 50.7-75.2 21.7-21.7 47-38.8 75.2-50.7 29.1-12.3 60.1-18.6 92-18.6s62.9 6.2 92 18.6c28.1 11.9 53.4 29 75.2 50.7 21.7 21.7 38.8 47 50.7 75.2 12.3 29.1 18.6 60.1 18.6 92s-6.2 62.9-18.6 92c-11.9 28.1-29 53.4-50.7 75.2-14.8 14.8-31.2 27.4-49.1 37.7-8.4 4.8-17.1 9.2-26.1 13-18.6 7.9-38 13.3-57.9 16.1-11.2 1.6-22.6 2.4-34.2 2.4-11.5 0-22.9-0.8-34.1-2.4-19.9-2.9-39.3-8.3-57.9-16.1-9-3.8-17.7-8.1-26.1-13-17.9-10.3-34.3-22.9-49.1-37.7-21.6-21.7-38.7-47-50.6-75.2z m-42.4 376.2c5.7-60.4 32-116.4 75.4-159.9 19.5-19.5 41.7-35.6 65.5-47.9 36.3 16.7 76.7 26 119.3 26s83-9.3 119.3-26c23.9 12.3 46 28.4 65.6 47.9 43.4 43.4 69.7 99.5 75.4 159.9H251.7z" p-id="2623"></path><path d="M512 578.5c-57.7 0-111-26.2-146.4-71.9-8.5-10.9-6.4-26.6 4.5-35.1 10.9-8.4 26.6-6.4 35.1 4.5 25.8 33.3 64.7 52.5 106.8 52.5s81-19.1 106.8-52.5c8.4-10.9 24.2-12.9 35.1-4.5 10.9 8.4 12.9 24.2 4.5 35.1-35.4 45.7-88.7 71.9-146.4 71.9z" p-id="2624"></path></svg>