<?xml version="1.0" standalone="no"?><!DOCTYPE svg PUBLIC "-//W3C//DTD SVG 1.1//EN" "http://www.w3.org/Graphics/SVG/1.1/DTD/svg11.dtd"><svg t="1581053583612" class="icon" viewBox="0 0 1024 1024" version="1.1" xmlns="http://www.w3.org/2000/svg" p-id="4044" xmlns:xlink="http://www.w3.org/1999/xlink" width="200" height="200"><defs><style type="text/css"></style></defs><path d="M875 512c0 200.51-162.5 363-363 363a361.59 361.59 0 0 1-227.52-80.11l103.7-194.21 71 109.08a40 40 0 0 0 69.2-3.75L654.24 457.7l79.18 42.36-28.68-241.39-213.06 112.06 92 49.21L488.39 608l-70.1-107.64a40 40 0 0 0-68.8 3L225.68 735.23A361.48 361.48 0 0 1 149 512c0-200.5 162.54-363 363-363s363 162.49 363 363z" p-id="4045"></path></svg>