<?xml version="1.0" standalone="no"?><!DOCTYPE svg PUBLIC "-//W3C//DTD SVG 1.1//EN" "http://www.w3.org/Graphics/SVG/1.1/DTD/svg11.dtd"><svg t="1576734023596" class="icon" viewBox="0 0 1024 1024" version="1.1" xmlns="http://www.w3.org/2000/svg" p-id="2655" xmlns:xlink="http://www.w3.org/1999/xlink" width="200" height="200"><defs><style type="text/css"></style></defs><path d="M677.21 204.12A21.78 21.78 0 0 1 696 215l165.24 286.14a21.78 21.78 0 0 1 0 21.72L696 809a21.78 21.78 0 0 1-18.81 10.86h-330.4A21.78 21.78 0 0 1 328 809L162.76 522.86a21.78 21.78 0 0 1 0-21.72L328 215a21.78 21.78 0 0 1 18.81-10.86h330.4m0-51.51H346.79a73.24 73.24 0 0 0-63.43 36.62L118.15 475.38a73.24 73.24 0 0 0 0 73.24l165.21 286.16a73.24 73.24 0 0 0 63.43 36.62h330.42a73.24 73.24 0 0 0 63.43-36.62l165.21-286.16a73.24 73.24 0 0 0 0-73.24L740.64 189.22a73.24 73.24 0 0 0-63.43-36.62z" p-id="2656"></path><path d="M512 688.27c-97.19 0-176.27-79.07-176.27-176.27S414.81 335.73 512 335.73 688.27 414.81 688.27 512 609.2 688.27 512 688.27z m0-302.54A126.27 126.27 0 1 0 638.27 512 126.41 126.41 0 0 0 512 385.73z" p-id="2657"></path></svg>