<?xml version="1.0" standalone="no"?><!DOCTYPE svg PUBLIC "-//W3C//DTD SVG 1.1//EN" "http://www.w3.org/Graphics/SVG/1.1/DTD/svg11.dtd"><svg t="1576125909319" class="icon" viewBox="0 0 1024 1024" version="1.1" xmlns="http://www.w3.org/2000/svg" p-id="9420" xmlns:xlink="http://www.w3.org/1999/xlink" width="200" height="200"><defs><style type="text/css"></style></defs><path d="M564.7 148.8v57.4c0 21.5 13.7 40.6 34.1 47.4 6.6 2.2 13.2 4.7 19.6 7.4 27.3 11.5 52.4 27.4 74.5 47 9.4 8.3 21.2 12.6 33.2 12.6 8.5 0 17.1-2.2 24.9-6.7l49.8-28.6 52.3 90.9-49.7 28.6C784.7 415.6 775 437 779.3 458c3.5 17.5 5.3 35.6 5.3 53.6 0 18.7-1.9 37.2-5.6 55.1-4.4 21.1 5.2 42.5 23.8 53.3l49.6 28.9-52.7 90.6-49.8-29c-7.8-4.6-16.5-6.8-25.1-6.8-11.9 0-23.7 4.2-33 12.4-21.8 19.1-46.4 34.6-73.3 46-6.8 2.9-13.8 5.5-20.9 7.8-20.4 6.7-34.3 25.7-34.4 47.2l-0.3 57.6-104.8-0.5 0.3-57.8c0.1-21.5-13.5-40.6-33.9-47.6-6-2-12-4.3-17.9-6.8-27.7-11.7-53.1-27.8-75.5-47.9-9.4-8.4-21.4-12.8-33.4-12.8-8.5 0-17 2.1-24.7 6.5l-50.4 28.6-51.8-91.1 50.3-28.6c18.7-10.6 28.5-32 24.4-53-3.3-17-5-34.6-5-52.2 0-19 1.9-37.8 5.8-56.1 4.4-21-5.1-42.5-23.6-53.4l-49.8-29.3 53.2-90.4 49.8 29.3c7.9 4.6 16.6 6.9 25.4 6.9 11.8 0 23.5-4.2 32.9-12.3 21.6-18.8 46-34.1 72.6-45.3 6.2-2.6 12.7-5.1 19.2-7.3 20.3-6.9 34-25.9 34-47.4v-57.6h104.7m-52.4 540.2c23.9 0 47.1-4.7 68.9-13.9 21.1-8.9 40-21.7 56.2-37.9 16.2-16.2 29-35.2 37.9-56.2 9.2-21.9 13.9-45 13.9-68.9s-4.7-47.1-13.9-68.9c-8.9-21.1-21.7-40-37.9-56.2-16.2-16.2-35.2-29-56.2-37.9-21.9-9.2-45-13.9-68.9-13.9-23.9 0-47.1 4.7-68.9 13.9-21.1 8.9-40 21.7-56.2 37.9-16.2 16.2-29 35.2-37.9 56.2-9.2 21.9-13.9 45-13.9 68.9s4.7 47.1 13.9 68.9c8.9 21.1 21.7 40 37.9 56.2 16.2 16.2 35.2 29 56.2 37.9 21.8 9.2 45 13.9 68.9 13.9m85.2-590H427.1c-9.5 0-17.2 7.8-17.2 17.2v90.3c-7.7 2.6-15.2 5.4-22.7 8.6-31.5 13.3-60.3 31.3-85.9 53.7l-78-45.9c-2.7-1.6-5.7-2.4-8.7-2.4-5.9 0-11.7 3-14.9 8.5l-86.4 146.8c-4.8 8.2-2.1 18.8 6.1 23.6l78.1 45.9c-4.6 21.7-6.9 43.9-6.9 66.4 0 20.9 2 41.6 5.9 61.8l-78.8 44.8c-8.2 4.7-11.2 15.3-6.5 23.5l84.2 148.1c3.2 5.6 9 8.7 15 8.7 2.9 0 5.8-0.7 8.5-2.2l78.8-44.8c26.5 23.8 56.5 42.9 89.4 56.8 7 3 14.1 5.7 21.2 8.1l-0.5 90.5c0 9.5 7.7 17.3 17.2 17.3l170.3 0.9h0.1c9.5 0 17.2-7.7 17.3-17.2l0.5-90.4c8.3-2.7 16.6-5.8 24.7-9.3 31.8-13.5 61-31.7 86.8-54.4l78.1 45.4c2.7 1.6 5.7 2.3 8.6 2.3 6 0 11.8-3.1 15-8.6l85.7-147.2c4.8-8.2 2-18.8-6.2-23.6L828 576.7c4.4-21.3 6.6-43.1 6.6-65.3 0-21.5-2.1-42.7-6.3-63.5l78.1-44.9c8.2-4.7 11.1-15.3 6.4-23.5l-84.9-147.7c-3.2-5.5-9-8.6-15-8.6-2.9 0-5.9 0.7-8.5 2.3l-78.2 44.9c-26.2-23.3-55.8-41.9-88.2-55.6-7.6-3.2-15.4-6.2-23.2-8.8v-90.2c-0.1-9.2-7.8-17-17.3-17z m-85.2 540c-70.1 0-127-56.9-127-127s56.9-127 127-127 127 56.9 127 127-56.9 127-127 127z" p-id="9421"></path></svg>