<?xml version="1.0" standalone="no"?><!DOCTYPE svg PUBLIC "-//W3C//DTD SVG 1.1//EN" "http://www.w3.org/Graphics/SVG/1.1/DTD/svg11.dtd"><svg t="1580807178196" class="icon" viewBox="0 0 1024 1024" version="1.1" xmlns="http://www.w3.org/2000/svg" p-id="1443" xmlns:xlink="http://www.w3.org/1999/xlink" width="200" height="200"><defs><style type="text/css"></style></defs><path d="M795.32 435.84L589.09 229.61a39 39 0 0 0-53.58-1.48 705.68 705.68 0 0 1-84.93 62.71c-61.07 38.28-114.91 57.82-155.71 56.5a39 39 0 0 0-38 51.94c0.42 2 3.32 18.41-1.75 69.79-3.91 39.6-11.26 86.1-20.71 130.94-22.22 105.48-53.08 188.05-80.55 215.51a39 39 0 0 0 0 55.15l0.44 0.44 0.23 0.23a31.41 31.41 0 0 0 43 0.61c1.77-1.6 2.92-2.72 2.92-2.72 56.13-46.88 142.89-60 165.37-64.69 18.67-4.93 38.45-9.62 59.12-14 44.84-9.45 91.34-16.8 131-20.71 51.37-5.07 67.81-2.16 69.77-1.75a39 39 0 0 0 52-38c-1.32-40.81 18.22-94.65 56.5-155.72a704.28 704.28 0 0 1 62.7-84.91 39 39 0 0 0-1.59-53.61z m-126.59 96c-36.11 57.35-58.21 110-66 157.14-12.44 0.12-28 0.87-47.37 2.63-42.08 3.82-92 11.44-140.64 21.46-52.08 10.75-100.51 23.8-140.69 37.89 14.1-40.16 27.16-88.6 37.9-140.68 10-48.6 17.65-98.55 21.47-140.64 1.75-19.42 2.51-34.93 2.62-47.37 47.14-7.81 99.79-29.9 157.15-66A801.52 801.52 0 0 0 559 309.81L715.12 466a799.78 799.78 0 0 0-46.39 65.79zM815 430.62L594.82 210.4A39 39 0 0 1 650 155.25l220.19 220.21A39 39 0 0 1 815 430.62z" p-id="1444"></path><path d="M385.61 639.82a39 39 0 0 1 0-55.15l158.75-158.74a39 39 0 0 1 55.15 55.15L440.77 639.82a39 39 0 0 1-55.16 0z" p-id="1445"></path></svg>