<?xml version="1.0" standalone="no"?><!DOCTYPE svg PUBLIC "-//W3C//DTD SVG 1.1//EN" "http://www.w3.org/Graphics/SVG/1.1/DTD/svg11.dtd"><svg t="1581150389889" class="icon" viewBox="0 0 1024 1024" version="1.1" xmlns="http://www.w3.org/2000/svg" p-id="5048" xmlns:xlink="http://www.w3.org/1999/xlink" width="200" height="200"><defs><style type="text/css"></style></defs><path d="M620.82 823.37l118.1-208.09a25 25 0 1 0-43.49-24.68L583.58 787.69l-352.45 41.72 141.94-141.94a102.48 102.48 0 1 0-35.36-35.36L192.77 797l42.36-357.81 197.08-111.8a25 25 0 0 0-24.68-43.49L199.45 402A25 25 0 0 0 187 420.8l-52 439.29a25 25 0 0 0 27.77 27.77l439.28-52a25 25 0 0 0 18.77-12.49z m-232.26-261a52.48 52.48 0 1 1 0 74.22 52.53 52.53 0 0 1 0-74.19z" p-id="5049"></path><path d="M545.34 479.84c-81.81-81.81-81.81-214.93 0-296.74a209.58 209.58 0 0 1 53.79-39l16.15-8.1L889.2 409.9l-8.2 16.15a209.59 209.59 0 0 1-39 53.79c-81.73 81.81-214.85 81.81-296.66 0z m60.92-282.18a160.41 160.41 0 0 0-25.56 20.8c-62.32 62.32-62.32 163.71 0 226s163.71 62.32 226 0a160.38 160.38 0 0 0 20.8-25.56z" p-id="5050"></path></svg>