<svg class="icon" viewBox="0 0 1024 1024" xmlns="http://www.w3.org/2000/svg" width="200" height="200"><defs><style/></defs><path d="M634 102.4H389.95A56.1 56.1 0 0 0 334 158.34v244.1a56.1 56.1 0 0 0 55.94 55.94H634a56.1 56.1 0 0 0 56-55.94v-244.1a56.1 56.1 0 0 0-56-55.94zm-66.2 176.49H456.2a25 25 0 0 1 0-50h111.6a25 25 0 0 1 0 50zM433.46 565.62h-244.1a56.1 56.1 0 0 0-55.94 55.94v244.1a56.1 56.1 0 0 0 55.94 55.94h244.1a56.1 56.1 0 0 0 55.94-55.94v-244.1a56.1 56.1 0 0 0-55.94-55.94zm-66.24 176.49h-111.6a25 25 0 0 1 0-50h111.6a25 25 0 0 1 0 50zm467.42-176.49H590.53a56.1 56.1 0 0 0-55.94 55.94v244.1a56.1 56.1 0 0 0 55.94 55.94h244.11a56.1 56.1 0 0 0 55.94-55.94v-244.1a56.1 56.1 0 0 0-55.94-55.94zm-66.25 176.49h-111.6a25 25 0 0 1 0-50h111.6a25 25 0 0 1 0 50zm97.16-204.32h-707.1a25 25 0 0 1 0-50h707.09a25 25 0 1 1 0 50zm0 0"/></svg>