<svg class="icon" viewBox="0 0 1024 1024" xmlns="http://www.w3.org/2000/svg" width="200" height="200"><defs><style/></defs><path d="M818.19 911.22H233.34a91.79 91.79 0 0 1-91.69-91.69V684.26h50v135.27a41.74 41.74 0 0 0 41.69 41.69h584.85a41.74 41.74 0 0 0 41.69-41.69V204.47a41.73 41.73 0 0 0-41.69-41.68H233.34a41.73 41.73 0 0 0-41.69 41.68v110.21h-50V204.47a91.79 91.79 0 0 1 91.69-91.68h584.85a91.79 91.79 0 0 1 91.69 91.68v615.06a91.79 91.79 0 0 1-91.69 91.69z"/><path d="M571.81 551.59c-91.71 0-166.33-74.61-166.33-166.33s74.62-166.32 166.33-166.32 166.33 74.61 166.33 166.33-74.62 166.32-166.33 166.32zm0-282.65a116.33 116.33 0 1 0 116.32 116.33 116.46 116.46 0 0 0-116.32-116.33z"/><path d="M825.25 791.25H318.37l.83-25.8c2.27-70.63 29.3-136.73 76.1-186.15 47.46-50.11 110.15-77.71 176.51-77.71s129 27.6 176.51 77.71c46.8 49.41 73.83 115.52 76.1 186.15zm-453.9-50h400.92c-6.67-48.5-27.59-93.08-60.25-127.56-37.92-40-87.72-62.09-140.21-62.09s-102.28 22.05-140.21 62.08c-32.66 34.49-53.6 79.07-60.25 127.57zM139.12 354.16h119.13q25 0 25 25t-25 25H139.12q-25 0-25-25t25-25zm0 121.23h119.13q25 0 25 25t-25 25H139.12q-25 0-25-25t25-25zm0 122.49h119.13q25 0 25 25t-25 25H139.12q-25 0-25-25t25-25z"/></svg>