<?xml version="1.0" standalone="no"?><!DOCTYPE svg PUBLIC "-//W3C//DTD SVG 1.1//EN" "http://www.w3.org/Graphics/SVG/1.1/DTD/svg11.dtd"><svg t="1574405489683" class="icon" viewBox="0 0 1024 1024" version="1.1" xmlns="http://www.w3.org/2000/svg" p-id="3324" xmlns:xlink="http://www.w3.org/1999/xlink" width="200" height="200"><defs><style type="text/css"></style></defs><path d="M230.34 128a36.84 36.84 0 0 0-26.88 11.52c-7 7.68-11.52 17.28-11.52 26.88v691.2a36.84 36.84 0 0 0 11.52 26.88A37.91 37.91 0 0 0 230.34 896h563.2a36.84 36.84 0 0 0 26.88-11.52 37.91 37.91 0 0 0 11.52-26.88v-512L614.34 128z m0 0" fill="#6DC92B" p-id="3325"></path><path d="M831.94 345.6h-179.2a39.39 39.39 0 0 1-38.4-38.4V128z m0 0" p-id="3326"></path><path d="M482.5 532.48l-87-121.6h60.16l57 87 59.52-87h58.24l-89 121.6 93.44 129.28H574l-62.7-92.16-62.72 92.8h-59.52z m0 0" p-id="3327"></path></svg>