<svg class="icon" viewBox="0 0 3240 1024" xmlns="http://www.w3.org/2000/svg" width="632.813" height="200"><defs><style/></defs><path d="M306.62 878.82V572.588L70.847 207.51c-20.52-32.907-35.23-58.846-43.748-77.042-8.517-18.583-12.776-34.456-12.776-48.006 0-22.454 8.518-41.812 25.94-58.072C57.683 8.13 78.977 0 104.528 0c26.713 0 47.232 7.743 60.782 22.842 13.937 15.098 34.456 45.296 62.33 90.592l180.41 293.069 182.346-293.07c10.84-17.808 20.132-33.294 27.487-45.295 7.356-12.389 15.873-23.616 24.778-34.456 8.904-10.84 18.97-18.97 29.81-24.778C683.312 2.71 696.862 0 712.735 0c24.39 0 44.909 8.13 61.556 24.003s24.777 34.456 24.777 55.749c0 17.034-4.258 34.069-12.388 51.49-8.517 17.035-22.455 40.65-42.973 71.235l-241.58 370.498V878.82c0 39.876-9.29 69.687-27.487 89.431-18.583 19.744-41.811 29.81-70.46 29.81-29.036 0-52.265-9.678-70.46-29.423-18.196-19.357-27.1-49.554-27.1-89.818zm818.812-760.353v702.282h396.437c31.746 0 55.75 7.742 72.784 23.228s25.164 34.843 25.164 58.072c0 23.616-8.517 42.973-25.164 57.685-16.648 14.711-41.038 22.067-73.171 22.067h-471.93c-42.586 0-73.17-9.291-91.754-28.261-18.583-18.97-27.874-49.555-27.874-91.367v-743.32c0-39.488 8.904-69.298 26.713-89.043C974.445 10.066 997.674 0 1026.71 0c29.423 0 53.039 9.679 71.235 29.423 18.196 19.357 27.487 49.168 27.487 89.044zm1064.263 778.162c-43.36 33.682-85.559 59.233-126.21 75.88-40.65 17.035-85.945 25.165-136.662 25.165-46.07 0-86.72-9.291-121.563-27.487-34.843-18.196-61.944-42.973-80.527-73.945-18.97-30.972-28.261-65.04-28.261-101.432 0-49.168 15.486-90.98 46.844-125.822 30.972-34.844 73.945-58.072 128.533-69.687 11.227-2.71 39.876-8.517 84.785-17.808 45.296-9.292 84.01-17.81 116.143-25.165 32.133-7.743 67.364-17.034 104.917-27.874-2.323-47.232-11.615-82.075-28.649-104.53-17.034-22.067-51.878-33.294-104.916-33.294-45.684 0-80.14 6.194-102.981 18.97-23.229 12.776-42.973 31.746-59.233 57.298-16.648 25.551-28.262 42.198-34.844 50.328-6.968 8.13-21.293 12.002-43.747 12.002-20.132 0-37.553-6.581-52.265-19.357-14.711-12.776-22.067-29.423-22.067-49.555 0-31.746 11.227-62.33 33.682-92.14 22.454-29.81 57.297-54.588 104.529-73.558 47.232-19.358 106.465-29.036 176.926-29.036 78.977 0 140.92 9.291 186.217 27.874 45.296 18.583 77.042 48.006 95.625 88.657 18.582 40.263 27.874 94.076 27.874 160.665 0 42.199 0 77.816-.387 107.24-.387 29.422-.387 61.943-1.162 97.947 0 33.682 5.42 68.912 16.648 105.691s16.647 60.395 16.647 70.848c0 18.583-8.517 35.23-25.939 50.329-17.421 15.098-37.166 22.841-58.846 22.841-18.583 0-36.779-8.517-54.587-25.939-17.035-17.034-36.005-42.199-56.524-75.106zm-11.614-260.162c-26.326 9.679-64.653 19.745-114.982 30.585-50.33 10.84-85.172 18.583-104.53 23.616-19.357 5.033-37.94 15.098-55.361 29.81-17.422 14.711-26.326 35.23-26.326 61.556 0 27.1 10.453 50.329 30.971 69.3 20.519 18.97 47.62 28.648 80.914 28.648 35.617 0 68.524-7.743 98.335-23.229 30.197-15.486 52.264-35.617 66.202-60.395 16.26-27.1 24.39-72.009 24.39-134.34v-25.55zm524.582-533.873V377.08c33.682-35.23 68.138-61.944 103.368-80.527 35.23-18.582 78.59-27.874 130.468-27.874 59.62 0 111.885 14.324 157.181 42.586 44.909 28.262 79.752 69.3 104.53 123.112 24.777 53.814 37.165 117.693 37.165 191.25 0 54.588-6.968 104.53-20.905 149.826-13.938 45.296-34.07 84.784-60.395 118.079-26.326 33.294-58.072 59.233-95.625 77.43-37.553 18.195-78.978 27.486-124.274 27.486-27.487 0-53.813-3.484-78.203-10.065-24.39-6.582-44.91-15.1-62.33-25.94-17.035-10.84-31.747-21.68-43.748-33.294-12.002-11.227-27.875-28.648-47.619-51.49v17.809c0 33.681-8.13 59.233-24.39 76.654-16.26 17.422-36.779 25.94-61.943 25.94-25.552 0-45.684-8.518-60.782-25.94-15.099-17.421-22.842-42.973-22.842-76.654V110.724c0-36.392 7.356-63.88 22.067-82.462C2569.486 9.292 2590.004 0 2616.33 0c27.487 0 48.78 8.904 63.879 26.713 15.098 17.809 22.454 42.973 22.454 75.88zm8.517 533.873c0 71.622 16.26 126.597 49.168 164.924 32.52 38.328 75.493 57.685 128.532 57.685 45.296 0 84.01-19.744 116.918-58.846 32.52-39.102 49.168-95.625 49.168-168.796 0-47.231-6.969-88.269-20.52-122.338s-32.906-60.781-58.071-79.364c-25.164-18.583-54.2-27.875-87.495-27.875-34.069 0-64.653 9.292-91.366 27.875-26.713 18.583-48.006 45.683-63.105 80.913-15.486 35.23-23.229 77.042-23.229 125.822z"/></svg>