<?xml version="1.0" standalone="no"?><!DOCTYPE svg PUBLIC "-//W3C//DTD SVG 1.1//EN" "http://www.w3.org/Graphics/SVG/1.1/DTD/svg11.dtd"><svg t="1581304544394" class="icon" viewBox="0 0 1024 1024" version="1.1" xmlns="http://www.w3.org/2000/svg" p-id="4074" xmlns:xlink="http://www.w3.org/1999/xlink" width="200" height="200"><defs><style type="text/css"></style></defs><path d="M692.351974 1.024a27.519996 27.519996 0 0 1 11.455998 2.943999c3.2 1.536 6.399999 3.647999 10.495998 6.527999 6.015999 4.351999 14.207998 10.943998 24.703997 19.775998 17.855997 15.039998 41.983994 36.479995 71.039989 62.71999l4.864 4.416a8858.494702 8858.494702 0 0 1 89.407987 82.239988c2.624 2.496 8.063999 11.263998 16.383997 26.431996l-59.775991 2.559999-80.383988-73.407989-4.864-4.415999c-28.607996-25.855996-59.519991-71.03999-59.519991-56.063992v132.991981c0 3.008 48.191993 3.328 144.767979 0.959999l59.775991-2.623999V1023.99985h-690.559899a127.679981 127.679981 0 0 1-127.871981-127.679981V1.6h453.503934L690.303974 0.96a27.007996 27.007996 0 0 1 1.6 0h0.448zM664.959978 52.735992H152.768053c-5.567999 0-5.311999 281.215959 0.64 843.583877 0 42.367994 34.303995 76.543989 76.799988 76.543988l639.359907 1.664 0.959999-717.311895H664.959978V52.735992z m-562.687918 408.95994v-0.64h51.199993v0.64h869.503872v434.559937H0.000075v-434.559937h102.271985z m179.455974 317.311954l150.655978-218.559968v-31.999995H221.568043v40.767994h149.439978l-150.399978 217.407968v32.767995H437.120011v-40.319994H281.728034z m201.79197 40.383994h50.367993v-290.879957H483.520004v290.879957z m163.071976-108.095984h60.159991c33.663995 0 59.839991-7.935999 78.591989-23.743997 18.687997-15.871998 28.031996-38.079994 28.031996-66.55999 0-27.839996-9.535999-50.239993-28.671996-67.13599-19.071997-16.895998-44.863993-25.343996-77.439989-25.343996H596.095988v290.879957h50.559992V711.295896z m0-40.575994V569.215917h62.079991c16.831998 0.32 30.015996 5.119999 39.615994 14.527997 9.599999 9.407999 14.335998 21.951997 14.335998 37.631995 0 15.999998-4.671999 28.223996-14.143998 36.671995-9.471999 8.447999-23.167997 12.671998-41.151994 12.671998h-60.799991z" p-id="4075"></path></svg>