<svg class="icon" viewBox="0 0 1024 1024" xmlns="http://www.w3.org/2000/svg" width="200" height="200"><defs><style/></defs><path d="M841.3 537.6c-97.9 97.9-256.6 98-354.6.4-98.4-98.1-98.9-256.1-1-354.7 78.9-79.5 197.7-95 292.3-46.7 15.4 7.9 18.7 28.5 6.4 40.7L651.7 310l62.2 62.2 132.8-132.8c12.2-12.2 32.8-8.9 40.7 6.5 48.2 94.3 32.9 212.7-46.1 291.7zM457.7 738.1l97.3-97.3c-38.5-14.9-73.9-37.9-104-68-30.1-30.1-53.1-65.6-68-104.2l-97.6 97.6c-46.3-1-92.9 16.2-128.2 51.5-68.8 68.8-68.8 180.3 0 249.1s180.3 68.8 249.1 0c35.4-35.3 52.6-82.1 51.4-128.7zm-227 55.3c-28.1-28.1-28.1-73.7 0-101.8 28.1-28.1 73.7-28.1 101.8 0 28.1 28.1 28.1 73.7 0 101.8-28.1 28.1-73.7 28.1-101.8 0z"/></svg>