<svg id="图层_1" data-name="图层 1" xmlns="http://www.w3.org/2000/svg" xmlns:xlink="http://www.w3.org/1999/xlink" viewBox="0 0 1024 1024"><defs><style>.cls-1{fill:none;}.cls-2{clip-path:url(#clip-path);}.cls-3{fill:#6dc92b;}.cls-4{fill:#a0e06e;}.cls-5{fill:#fff;}</style><clipPath id="clip-path"><rect class="cls-1" x="192.06" y="128" width="639.88" height="768"/></clipPath></defs><title>excel图标</title><g class="cls-2"><path class="cls-3" d="M230.34,128a36.84,36.84,0,0,0-26.88,11.52c-7,7.68-11.52,17.28-11.52,26.88V857.6a36.84,36.84,0,0,0,11.52,26.88A37.91,37.91,0,0,0,230.34,896h563.2a36.84,36.84,0,0,0,26.88-11.52,37.91,37.91,0,0,0,11.52-26.88v-512L614.34,128Zm0,0"/></g><path class="cls-4" d="M831.94,345.6H652.74a39.39,39.39,0,0,1-38.4-38.4V128Zm0,0"/><path class="cls-5" d="M482.5,532.48l-87-121.6h60.16l57,87,59.52-87h58.24l-89,121.6,93.44,129.28H574L511.3,569.6l-62.72,92.8H389.06Zm0,0"/></svg>